
>>
>> "C:\Program Files (x86)\ffmpegyag\bin\ffmpeg.exe" -i "C:\Users\Public\Documents\Unity Projects\test\Assets\Resources\B-right.webm" -strict experimental -f mov -map_chapters -1 -map 0:0 -sn -an -b:v:0 1800k -mbd:v:0 rd -mbcmp:v:0 rd -cmp:v:0 rd -precmp:v:0 rd -subcmp:v:0 rd -trellis:v:0 1 -y "C:\Users\Public\Documents\Unity Projects\test\Assets\Resources\B-right.mov"
>>

ffmpeg version 2.5.2 Copyright (c) 2000-2014 the FFmpeg developers
  built on Dec 30 2014 17:18:09 with gcc 4.9.2 (GCC)
  configuration: --disable-static --enable-shared --enable-gpl --enable-version3 --disable-w32threads --enable-avisynth --enable-bzlib --enable-fontconfig --enable-frei0r --enable-gnutls --enable-iconv --enable-libass --enable-libbluray --enable-libbs2b --enable-libcaca --enable-libfreetype --enable-libgme --enable-libgsm --enable-libilbc --enable-libmodplug --enable-libmp3lame --enable-libopencore-amrnb --enable-libopencore-amrwb --enable-libopenjpeg --enable-libopus --enable-librtmp --enable-libschroedinger --enable-libsoxr --enable-libspeex --enable-libtheora --enable-libtwolame --enable-libvidstab --enable-libvo-aacenc --enable-libvo-amrwbenc --enable-libvorbis --enable-libvpx --enable-libwavpack --enable-libwebp --enable-libx264 --enable-libx265 --enable-libxavs --enable-libxvid --enable-lzma --enable-decklink --enable-zlib
  libavutil      54. 15.100 / 54. 15.100
  libavcodec     56. 13.100 / 56. 13.100
  libavformat    56. 15.102 / 56. 15.102
  libavdevice    56.  3.100 / 56.  3.100
  libavfilter     5.  2.103 /  5.  2.103
  libswscale      3.  1.101 /  3.  1.101
  libswresample   1.  1.100 /  1.  1.100
  libpostproc    53.  3.100 / 53.  3.100
Input #0, matroska,webm, from 'C:\Users\Public\Documents\Unity Projects\test\Assets\Resources\B-right.webm':
  Metadata:
    encoder         : Lavf56.15.102
  Duration: 00:00:13.81, start: 0.000000, bitrate: 903 kb/s
    Stream #0:0: Video: vp8, yuv420p, 960x540, SAR 1:1 DAR 16:9, 29.97 fps, 29.97 tbr, 1k tbn, 1k tbc (default)
    Metadata:
      alpha_mode      : 1
[libx264 @ 02921bc0] using SAR=1/1
[libx264 @ 02921bc0] using cpu capabilities: MMX2 SSE2Fast SSSE3 SSE4.2 AVX FMA3 AVX2 LZCNT BMI2
[libx264 @ 02921bc0] profile High, level 3.1
[libx264 @ 02921bc0] 264 - core 144 r2525 40bb568 - H.264/MPEG-4 AVC codec - Copyleft 2003-2014 - http://www.videolan.org/x264.html - options: cabac=1 ref=3 deblock=1:0:0 analyse=0x3:0x113 me=hex subme=7 psy=1 psy_rd=1.00:0.00 mixed_ref=1 me_range=16 chroma_me=0 trellis=1 8x8dct=1 cqm=0 deadzone=21,11 fast_pskip=1 chroma_qp_offset=-2 threads=6 lookahead_threads=1 sliced_threads=0 nr=0 decimate=1 interlaced=0 bluray_compat=0 constrained_intra=0 bframes=3 b_pyramid=2 b_adapt=1 b_bias=0 direct=1 weightb=1 open_gop=0 weightp=2 keyint=250 keyint_min=25 scenecut=40 intra_refresh=0 rc_lookahead=40 rc=abr mbtree=1 bitrate=1800 ratetol=1.0 qcomp=0.60 qpmin=0 qpmax=69 qpstep=4 ip_ratio=1.40 aq=1:1.00
Output #0, mov, to 'C:\Users\Public\Documents\Unity Projects\test\Assets\Resources\B-right.mov':
  Metadata:
    encoder         : Lavf56.15.102
    Stream #0:0: Video: h264 (libx264) (avc1 / 0x31637661), yuv420p, 960x540 [SAR 1:1 DAR 16:9], q=-1--1, 1800 kb/s, 29.97 fps, 30k tbn, 29.97 tbc (default)
    Metadata:
      alpha_mode      : 1
      encoder         : Lavc56.13.100 libx264
Stream mapping:
  Stream #0:0 -> #0:0 (vp8 (native) -> h264 (libx264))
Press [q] to stop, [?] for help
video:3001kB audio:0kB subtitle:0kB other streams:0kB global headers:0kB muxing overhead: 0.188656%
[libx264 @ 02921bc0] frame I:2     Avg QP:10.03  size: 23914
[libx264 @ 02921bc0] frame P:104   Avg QP: 4.64  size: 15622
[libx264 @ 02921bc0] frame B:308   Avg QP: 8.48  size:  4546
[libx264 @ 02921bc0] consecutive B-frames:  0.7%  0.0%  0.7% 98.6%
[libx264 @ 02921bc0] mb I  I16..4: 41.7% 46.0% 12.3%
[libx264 @ 02921bc0] mb P  I16..4:  1.6%  4.9%  3.9%  P16..4: 15.5%  5.0%  4.3%  0.0%  0.0%    skip:64.8%
[libx264 @ 02921bc0] mb B  I16..4:  0.3%  0.7%  1.0%  B16..8: 15.6%  3.0%  1.3%  direct: 7.6%  skip:70.4%  L0:47.7% L1:41.1% BI:11.2%
[libx264 @ 02921bc0] final ratefactor: 7.03
[libx264 @ 02921bc0] 8x8 transform intra:42.2% inter:28.5%
[libx264 @ 02921bc0] coded y,uvDC,uvAC intra: 82.0% 86.9% 68.7% inter: 11.5% 21.4% 5.1%
[libx264 @ 02921bc0] i16 v,h,dc,p: 32% 19% 14% 34%
[libx264 @ 02921bc0] i8 v,h,dc,ddl,ddr,vr,hd,vl,hu: 15% 35% 16%  4%  5%  3% 10%  5%  8%
[libx264 @ 02921bc0] i4 v,h,dc,ddl,ddr,vr,hd,vl,hu: 22% 32% 11%  5%  7%  5%  9%  4%  4%
[libx264 @ 02921bc0] i8c dc,h,v,p: 46% 26% 14% 14%
[libx264 @ 02921bc0] Weighted P-Frames: Y:0.0% UV:0.0%
[libx264 @ 02921bc0] ref P L0: 64.1%  6.2% 18.7% 11.0%
[libx264 @ 02921bc0] ref B L0: 86.9%  9.5%  3.5%
[libx264 @ 02921bc0] ref B L1: 95.6%  4.4%
[libx264 @ 02921bc0] kb/s:1779.44
